<svg width="22" height="23" viewBox="0 0 22 23" fill="#FEAD00" xmlns="http://www.w3.org/2000/svg">
<path d="M1.69577 21.3725C1.69577 22.2719 2.404 23 3.27875 23H8.42492V12.517H1.69577V21.3725Z" fill="#FEAD00"/>
<path d="M13.5751 23H18.7213C19.594 23 20.3043 22.2719 20.3043 21.3725V12.517H13.5751V23Z" fill="#FEAD00"/>
<path d="M0.5 10.7223H8.42491V6.20483H2.08298C1.20823 6.20483 0.5 6.933 0.5 7.83237V10.7223Z" fill="#FEAD00"/>
<path d="M13.5751 6.20483V10.7223H21.5V7.83237C21.5 6.933 20.7918 6.20483 19.917 6.20483H13.5751Z" fill="#FEAD00"/>
<path d="M12.4636 6.20483H9.53641V23H12.4636V6.20483Z" fill="#FEAD00"/>
<path d="M6.23 5.35085H15.77C16.5886 5.35085 18.5868 4.30296 18.5868 1.92664C18.5868 0.773543 17.7863 0 16.5946 0C15.4028 0 13.7998 0.783856 12.5037 2.15354C12.1065 1.7678 11.5748 1.52646 10.9849 1.52646C10.4031 1.52646 9.87746 1.76161 9.48222 2.1391C8.18815 0.779731 6.59314 0 5.40541 0C4.21366 0 3.41315 0.773543 3.41315 1.92664C3.41315 4.30296 5.41143 5.35085 6.23 5.35085ZM13.539 3.45516C14.5742 2.29175 15.8442 1.68323 16.5946 1.68323C16.9517 1.68323 16.9677 2.04009 16.9356 2.20099C16.7852 2.95596 15.9445 3.59749 15.6777 3.67175H13.6313C13.5811 3.67175 13.537 3.64081 13.5169 3.59543C13.4968 3.54592 13.5069 3.49229 13.539 3.45516ZM5.40541 1.68117C6.15577 1.68117 7.42576 2.28969 8.46101 3.45309C8.49512 3.49022 8.50314 3.54592 8.48308 3.5913C8.46302 3.63874 8.41888 3.66762 8.36872 3.66762H6.32229C6.05545 3.59543 5.21682 2.95184 5.06434 2.19686C5.03224 2.03803 5.04829 1.68117 5.40541 1.68117Z" fill="#FEAD00"/>
</svg>
