<svg width="23" height="21" viewBox="0 0 23 21" fill="#FEAD00" xmlns="http://www.w3.org/2000/svg">
<g clip-path="url(#clip0_4170_25)">
<path d="M5.94471 8.85596H1.05593C0.434623 8.85596 -0.00875079 9.35702 0.0495878 9.9826L0 19.7399C0 19.7696 0 19.7962 0.00583386 19.8229C0.0933418 20.4722 0.679645 21 1.31845 21H7.55485C8.16449 21 8.5962 20.5167 8.55828 19.9089L7.20482 9.74541C7.19899 9.74837 7.19023 9.75134 7.1844 9.75431C6.99188 9.23842 6.48725 8.85596 5.94471 8.85596Z" fill="#FEAD00"/>
<path d="M22.9883 13.069C22.9271 12.3308 22.5595 11.7912 22.0812 11.4028C22.4429 11.1419 22.6558 10.7624 22.7025 10.285C22.7637 9.64464 22.6004 8.64252 21.9382 7.91614C21.6028 7.5485 21.0019 7.11266 20.0451 7.11266H15.5968C15.5881 6.45743 15.5881 5.4316 15.6347 4.52139C15.7018 3.205 14.9784 1.60398 14.2638 0.761965C13.8875 0.317238 13.5054 0.0711563 13.1291 0.0237188C13.0066 0.00889454 12.8812 0 12.7557 0C11.9361 0 10.9677 0.332063 10.778 1.06438C10.6935 1.38162 10.7722 1.71665 10.8539 2.07243C10.9618 2.54384 11.0989 3.12791 10.956 3.94621C10.7139 5.33376 8.64869 8.68996 7.98071 9.30665L9.37209 19.7637C10.288 20.1254 12.4057 20.9111 13.52 20.9111H19.0826C19.4618 20.9111 20.7277 20.828 21.1069 19.7459C21.2878 19.2241 21.2207 18.7349 21.0427 18.3139C21.0398 18.2723 21.0398 18.2368 21.0369 18.216C21.0369 18.2071 21.0369 18.1982 21.034 18.1864C21.7282 17.9966 22.1774 17.5282 22.297 16.8314C22.4399 15.9924 22.192 15.4113 21.9441 15.0585C22.682 14.7116 23.0671 14.0119 22.9883 13.069Z" fill="#FEAD00"/>
</g>
<defs>
<clipPath id="clip0_4170_25">
<rect width="23" height="21" fill="#FEAD00"/>
</clipPath>
</defs>
</svg>
