<svg width="21" height="26" viewBox="0 0 21 26" fill="#FEAD00" xmlns="http://www.w3.org/2000/svg">
<path d="M19.7293 9.6707C19.1727 8.85276 18.4268 8.20452 17.5548 7.77329C17.6645 7.47838 17.7276 7.16122 17.7276 6.82736C17.7276 5.78128 17.1216 4.83813 16.1947 4.40969C15.9397 2.55678 14.3575 1.13789 12.4901 1.13789C12.0624 1.13789 11.6428 1.21023 11.2425 1.35768C10.5323 0.503567 9.48204 0 8.37697 0C6.99495 0 5.73632 0.770652 5.08644 1.98923C4.81771 1.92802 4.54076 1.89742 4.2638 1.89742C2.20173 1.89742 0.52356 3.60008 0.52356 5.69225C0.52356 6.75224 0.954071 7.7093 1.64508 8.39927V21.8342C1.64508 23.6009 3.06276 25.0392 4.804 25.0392H12.6985C14.4398 25.0392 15.8575 23.6009 15.8575 21.8342V18.5402C17.1353 18.3677 18.3144 17.7528 19.2028 16.7874C20.179 15.7302 20.7165 14.3475 20.7165 12.898C20.7165 11.7378 20.3765 10.6222 19.7293 9.6707ZM12.6985 24.2714H4.804C3.47956 24.2714 2.39917 23.178 2.39917 21.8342V8.98352C2.94759 9.30625 3.5865 9.48987 4.2638 9.48987C5.17967 9.48987 6.05989 9.14766 6.73993 8.53559C7.23351 9.13375 7.9684 9.48987 8.7499 9.48987C9.61367 9.48987 10.4034 9.06698 10.8887 8.3631C11.3878 8.60515 11.9335 8.73034 12.4874 8.73034C12.7232 8.73034 12.9618 8.7053 13.2031 8.65801C13.6967 9.1894 14.374 9.48708 15.1006 9.48987V21.8342C15.1006 23.178 14.023 24.2714 12.6985 24.2714ZM13.6391 7.99586L13.4855 7.79833L13.2442 7.86232C12.9892 7.92909 12.7342 7.96526 12.4874 7.96526C11.9472 7.96526 11.4152 7.81224 10.9463 7.52568L10.5981 7.31145L10.4144 7.68148C10.0935 8.32415 9.45737 8.722 8.7499 8.722C8.07534 8.722 7.45288 8.34919 7.12108 7.75103L6.86058 7.27807L6.50685 7.68704C5.93923 8.34641 5.11934 8.722 4.2638 8.722C2.61853 8.722 1.27764 7.36153 1.27764 5.69225C1.27764 4.02297 2.61853 2.6625 4.2638 2.6625C4.57092 2.6625 4.87804 2.7098 5.17418 2.80718L5.5005 2.9129L5.6376 2.59295C6.11199 1.48288 7.18689 0.765087 8.37697 0.765087C9.33945 0.765087 10.2471 1.24083 10.8092 2.04209L10.9902 2.29804L11.2726 2.17007C11.6593 1.99479 12.0706 1.90576 12.4901 1.90576C14.0449 1.90576 15.3502 3.13825 15.4653 4.71294L15.4845 4.96333L15.7204 5.04679C16.4689 5.3111 16.9735 6.02889 16.9735 6.83293C16.9735 7.87623 16.1372 8.72478 15.1089 8.72478C14.5303 8.722 13.9956 8.45769 13.6391 7.99586ZM15.8575 17.7667V9.37858C16.3922 9.21722 16.8528 8.88614 17.1846 8.44657C18.8793 9.25895 19.9597 10.9755 19.9597 12.898C19.9597 15.3351 18.1883 17.3967 15.8575 17.7667Z" fill="#FEAD00"/>
<path d="M5.39074 20.8634V9.8656H4.63392V20.8634C4.63392 21.0693 4.46939 21.239 4.26373 21.239C4.06082 21.239 3.89355 21.072 3.89355 20.8634V9.8656H3.13947V20.8634C3.13947 21.4921 3.64401 22.0041 4.26373 22.0041C4.88619 22.0041 5.39074 21.4921 5.39074 20.8634Z" fill="#FEAD00"/>
<path d="M7.25549 22.0041C7.8752 22.0041 8.37975 21.4921 8.37975 20.8634V9.8656H7.62567V20.8634C7.62567 21.0693 7.46115 21.239 7.25549 21.239C7.04983 21.239 6.8853 21.072 6.8853 20.8634V9.8656H6.12848V20.8634C6.13122 21.4921 6.63577 22.0041 7.25549 22.0041Z" fill="#FEAD00"/>
<path d="M10.2471 22.0041C10.8668 22.0041 11.3714 21.4921 11.3714 20.8634V9.8656H10.6146V20.8634C10.6146 21.0693 10.45 21.239 10.2444 21.239C10.0415 21.239 9.87419 21.072 9.87419 20.8634V9.8656H9.11737V20.8634C9.12011 21.4921 9.62466 22.0041 10.2471 22.0041Z" fill="#FEAD00"/>
<path d="M13.6062 20.8634C13.6062 21.0693 13.4417 21.239 13.236 21.239C13.0331 21.239 12.8658 21.072 12.8658 20.8634V9.8656H12.109V20.8634C12.109 21.4921 12.6136 22.0041 13.2333 22.0041C13.853 22.0041 14.3575 21.4921 14.3575 20.8634V9.8656H13.6007V20.8634H13.6062Z" fill="#FEAD00"/>
<path d="M2.7666 5.31406H3.52342C3.52342 4.89953 3.85796 4.56011 4.26654 4.56011V3.79224C3.43842 3.79224 2.7666 4.47386 2.7666 5.31406Z" fill="#FEAD00"/>
<path d="M12.8631 22.7552H4.63953V23.5231H12.8631V22.7552Z" fill="#FEAD00"/>
</svg>
