<svg width="24" height="24" viewBox="0 0 24 24" fill="white" xmlns="http://www.w3.org/2000/svg">
<path fill-rule="evenodd" clip-rule="evenodd" d="M22.5442 0.830078H2.31335C1.48791 0.830078 0.850067 1.46792 0.850067 2.19581V22.4942C0.850067 23.222 1.48791 23.8599 2.31335 23.8599H22.5367C23.2645 23.8599 23.9999 23.222 23.9999 22.4942V2.19581C24.0074 1.46792 23.2645 0.830078 22.5442 0.830078ZM15.2503 2.19581L16.6985 5.11487H13.7795L12.3312 2.19581H15.2503ZM9.5172 2.19581L10.9655 5.11487H8.05392L6.59814 2.19581H9.5172ZM2.31335 2.19581H3.67908L5.12735 5.11487H2.31335V2.19581ZM22.5442 22.4942H2.31335V6.57815H22.5367V22.4942H22.5442ZM22.5442 5.11487H19.6251L18.1768 2.19581H21.0959L22.5517 3.65909V5.11487H22.5442ZM16.8936 13.857C17.6215 14.2172 17.6215 14.8551 16.8936 15.2228L9.3296 18.9523C8.60171 19.3125 8.05392 18.9523 8.05392 18.1268V10.938C8.05392 10.1275 8.60921 9.75985 9.3296 10.1275L16.8936 13.857Z" fill="white"/>
</svg>
