<svg width="23" height="22" viewBox="0 0 23 22" fill="none" xmlns="http://www.w3.org/2000/svg">
<path d="M19.0015 21.222C19.4108 21.222 19.7454 20.8858 19.7454 20.4672V12.3923H21.7007H21.704C22.4186 12.3923 22.9967 11.8056 22.9967 11.0805C22.9967 10.6652 22.8084 10.2961 22.5128 10.0555L19.9857 7.83074V4.12616C19.9857 3.6944 19.6414 3.34173 19.2127 3.34173H17.6146C17.1891 3.34173 16.8415 3.6944 16.8415 4.12616V5.0589L12.3461 1.09723C11.8589 0.668762 11.1378 0.668762 10.6506 1.09723L0.444983 10.0884C0.038967 10.4477 -0.107199 11.0245 0.0811927 11.5386C0.269584 12.0495 0.753555 12.3923 1.29274 12.3923H3.24812V20.4672C3.24812 20.8858 3.58268 21.222 3.99194 21.222H8.38991V15.3487C8.38991 14.5181 9.05253 13.8458 9.87105 13.8458H13.1257C13.9442 13.8458 14.6068 14.5181 14.6068 15.3487V21.2187H19.0015V21.222Z" fill="white"/>
</svg>
